# xmcd
#
# Track frame offsets:
#	150
#	15983
#	31595
#	47825
#	65019
#
# Disc length: 1075 seconds
#
# Revision: 0
# Processed by: cddbd v1.5.2PL0 Copyright (c) Steve Scherf et al.
# Submitted via: audiograbber 1.83.01
#
DISCID=33043105
DTITLE=Kortney Kayle - Single
DYEAR=2000
DGENRE=Country
TTITLE0=Don't Let Me Down
TTITLE1=Something To Cry About
TTITLE2=Jump
TTITLE3=I Say Hello
TTITLE4=You Got My Love
EXTD=
EXTT0=
EXTT1=
EXTT2=
EXTT3=
EXTT4=
PLAYORDER=
